<svg id="Layer_1" data-name="Layer 1" xmlns="http://www.w3.org/2000/svg" viewBox="0 0 2000 2000"><defs><style>.cls-1,.cls-2,.cls-3,.cls-4{fill:#1a1a1a;}.cls-2,.cls-3,.cls-4{stroke:#fff;stroke-miterlimit:10;}.cls-2{stroke-width:23px;}.cls-3{stroke-width:35px;}.cls-4{stroke-width:26px;}.cls-5{fill:#67a74a;}</style></defs><title>blackcat_logo</title><rect class="cls-1" x="274" y="529.12" width="1490.51" height="775.17" rx="37.41" ry="37.41"/><path class="cls-2" d="M1017,1257H376.45c-21.79,0-39.45-20-39.45-44.64V625.14c0-24.65,17.66-44.64,39.45-44.64h373"/><path class="cls-2" d="M1030.54,580.5H1665c20.46,0,37,20,37,44.64v587.22c0,24.65-16.58,44.64-37,44.64l-384.39.5"/><path class="cls-3" d="M1019,586.06c183.06.12,332.36,149.63,332.13,332.59-.23,183.17-149.48,332.45-332.42,332.51-184,0-332.89-149.29-332.63-333.61C686.31,734.32,835.32,586,1019,586.06Zm33.63,464.56v-267H985.05v267Z"/><path class="cls-3" d="M987.09,1343.63c128.59,5.53,240.15-34.24,331.12-125.15S1448.92,1016,1444.28,887.21c82.26,182.48,116.46,374.58,119.35,575.79C1362.67,1459.36,1169.08,1431.2,987.09,1343.63Z"/><path class="cls-3" d="M1053.94,494.81C795.61,471.35,571.45,697,593.09,950.53c-88-181.42-114.93-375.48-119.53-574.34C610.42,360.2,936,426.39,1053.94,494.81Z"/><rect class="cls-1" x="940" y="753" width="153" height="331"/><rect class="cls-4" x="995.5" y="783.5" width="49" height="266" rx="11.69" ry="11.69"/><rect class="cls-5" x="1002" y="791" width="35" height="252.27" rx="6.17" ry="6.17"/></svg>